<mxfile host="app.diagrams.net" modified="2020-10-26T15:35:54.119Z" agent="5.0 (X11; Linux x86_64) AppleWebKit/537.36 (KHTML, like Gecko) Chrome/86.0.4240.75 Safari/537.36" etag="Q0FBeala3QB0_-6gmNxm" version="13.8.3" type="github">
  <diagram id="tWODPl8VDveTpcF97xtP" name="Page-1">
    <mxGraphModel dx="1379" dy="773" grid="1" gridSize="10" guides="1" tooltips="1" connect="1" arrows="1" fold="1" page="1" pageScale="1" pageWidth="850" pageHeight="1100" math="0" shadow="0">
      <root>
        <mxCell id="0" />
        <mxCell id="1" parent="0" />
      </root>
    </mxGraphModel>
  </diagram>
</mxfile>
